<svg width="32" height="32" viewBox="0 0 32 32" fill="none" xmlns="http://www.w3.org/2000/svg"><style>path{fill:#000;}@media(prefers-color-scheme:dark){path{fill:#fff;}}</style><path fill-rule="evenodd" clip-rule="evenodd" d="M15.298 6.11a1.5 1.5 0 10-2.992-.22c-.222 3.035-.358 6.038-.306 9.075-.766.265-1.612.402-2.539.464-.897.06-1.78.049-2.713.037-.295-.004-.595-.008-.902-.01.122-3.07.23-6.165.23-9.264a1.5 1.5 0 00-3 0c0 3.52-.142 7.046-.286 10.607l-.001.015C2.645 20.36 2.5 23.941 2.5 27.527a1.5 1.5 0 003 0c0-3.014.105-6.03.225-9.071.276.001.565.005.862.009.979.012 2.05.026 3.075-.043.802-.054 1.632-.16 2.46-.367.025.417.055.835.09 1.255.057.704.124 1.377.19 2.034.147 1.458.285 2.83.285 4.26a1.5 1.5 0 003 0c0-1.586-.162-3.2-.315-4.726a100.84 100.84 0 01-.17-1.813c-.355-4.33-.225-8.56.096-12.956z"/><path fill-rule="evenodd" clip-rule="evenodd" d="M19.422 6.386c2.181-1.091 5.215-1.104 7.372-.42.404.128 1.07.427 1.48 1.017.243.35.481.948.246 1.637-.21.62-.692.961-1.024 1.137a1.5 1.5 0 01-2.182-1.083c-1.5-.322-3.36-.2-4.55.395a6.494 6.494 0 00-1.318.853c-.402.35-.577.637-.626.821-.074.274-.117.703-.095 1.185.021.484.103.9.199 1.153.352.935 1.119 1.567 2.314 2.078.868.37 1.758.603 2.706.852.447.117.907.237 1.384.377l.17.05c.475.136 1.217.35 1.911.657.718.316 1.785.893 2.294 1.95 1.277 2.652-.331 5.056-1.89 6.303-3.54 2.831-7.769 1.865-10.992.446-1.86-.82-3.374-2.033-4.214-4.133a1.5 1.5 0 112.786-1.114c.471 1.179 1.281 1.904 2.637 2.5 2.987 1.316 5.754 1.682 7.908-.041 1.125-.9 1.43-1.892 1.063-2.657-.001 0-.036-.059-.168-.158a3.28 3.28 0 00-.633-.351c-.497-.219-1.036-.375-1.525-.518a75.575 75.575 0 01-.192-.055c-.307-.09-.666-.185-1.055-.287-1.036-.272-2.288-.601-3.368-1.062-1.565-.668-3.184-1.761-3.944-3.78-.24-.637-.357-1.385-.388-2.074-.032-.69.018-1.444.195-2.1.27-1.002.938-1.77 1.557-2.307.636-.552 1.353-.977 1.942-1.271zm6.54 2.472a.055.055 0 01-.002-.001h.002zm.13-1.752z"/></svg>