<svg width="32" height="32" viewBox="0 0 32 32" fill="none" xmlns="http://www.w3.org/2000/svg"><style>@media (prefers-color-scheme:dark){path{fill:#fff}}</style><path fill-rule="evenodd" clip-rule="evenodd" d="M30.041 1.754a1.45 1.45 0 00-.414-.938 1.615 1.615 0 00-.449-.318 2.962 2.962 0 00-.684-.218c-.432-.09-.995-.147-1.607-.187-1.24-.081-2.876-.1-4.515-.09-1.645.009-3.319.047-4.643.082-.536.014-1.008.028-1.397.04a66.7 66.7 0 01-1.131.028c-.46 0-.934-.005-1.414-.01-.988-.01-2.006-.02-3 .01-.85.026-1.697.168-2.454.295l-.06.01c-.801.134-1.509.249-2.195.265-.632.015-1.243.19-1.689.32-.51.146-.819.235-1.082.252-.59.036-1.494.103-2.27.515-.54.286-.794.934-.63 1.524-.25.237-.407.581-.407.964 0 1.19.236 2.452.437 3.524.058.31.113.606.159.878.383 2.292.5 4.713.617 7.158l.042.87c.044.887.066 1.83.088 2.8.046 2.031.094 4.178.36 6.172.075.56.193 1.139.3 1.664.036.176.07.345.101.506.132.679.223 1.274.224 1.84l-.002.031a5.72 5.72 0 01-.004.062l-.006.08a4.02 4.02 0 00-.011.482c.008.165.036.503.214.838.228.43.658.759 1.213.78 1.606.064 3.327-.053 4.932-.418 1.407-.32 2.772-.391 4.26-.47.562-.03 1.14-.06 1.747-.105a30.525 30.525 0 002.11-.257l.42-.06c.815-.116 1.566-.207 2.288-.207 1.096 0 2.17-.1 3.181-.193l.02-.002c1.035-.096 2.006-.185 2.978-.185h3.602c.053 0 .08 0 .115.002l.127.002c.094 0 .23 0 .38-.019.35-.044.7-.178 1.035-.461.614-.52.836-1.328.938-1.893.114-.629.14-1.332.134-1.98a29.64 29.64 0 00-.089-1.86c-.013-.183-.026-.348-.038-.496-.024-.319-.043-.557-.049-.724-.06-1.81-.276-3.586-.497-5.301l-.067-.516c-.2-1.55-.395-3.046-.492-4.551-.1-1.526-.3-3.061-.494-4.542-.07-.53-.138-1.054-.2-1.568-.077-.63-.07-1.294-.047-2.048l.01-.302c.02-.648.044-1.366.005-2.075zM14.697 5.625c.678.052 1.187.674 1.138 1.389-.264 3.8-.37 7.459-.08 11.204.029.375.064.76.1 1.154.021.041.04.084.057.128.387 1.02 1.051 1.647 2.164 2.163 2.45 1.138 4.72 1.454 6.489-.037.923-.778 1.172-1.636.872-2.297 0 0-.03-.051-.138-.137a2.656 2.656 0 00-.52-.303c-.407-.19-.85-.325-1.25-.448l-.005-.001a55.224 55.224 0 01-.153-.047c-.252-.078-.547-.16-.866-.248-.85-.236-1.877-.52-2.763-.919-1.284-.578-2.613-1.523-3.236-3.268-.197-.551-.294-1.199-.32-1.794-.025-.598.016-1.25.16-1.816.222-.868.77-1.531 1.278-1.996a7.743 7.743 0 011.594-1.1c1.79-.943 4.279-.954 6.049-.363.33.11.878.37 1.214.88.2.303.395.82.202 1.416-.173.536-.568.831-.84.983-.6.335-1.346.094-1.664-.54a1.342 1.342 0 01-.127-.396c-1.23-.28-2.756-.174-3.733.341a5.308 5.308 0 00-1.081.738c-.33.303-.473.55-.514.71-.06.237-.096.608-.078 1.025.018.419.085.778.163.997.29.809.918 1.355 1.9 1.797.711.32 1.441.522 2.22.737.366.101.744.205 1.135.326l.095.03.045.013c.389.118.998.304 1.568.568.588.274 1.464.773 1.882 1.687 1.047 2.294-.272 4.373-1.552 5.452-2.903 2.448-6.374 1.612-9.018.385a8.481 8.481 0 01-.933-.503l.002.34c0 .716-.55 1.297-1.23 1.297-.68 0-1.231-.581-1.231-1.298 0-1.237-.114-2.424-.234-3.685-.054-.568-.11-1.15-.156-1.76a57.539 57.539 0 01-.074-1.084c-.68.18-1.36.27-2.018.317-.841.06-1.72.048-2.523.037-.244-.003-.48-.006-.707-.007-.1 2.629-.185 5.238-.185 7.845 0 .716-.551 1.297-1.23 1.297-.68 0-1.232-.581-1.232-1.297 0-3.102.12-6.198.237-9.265v-.013c.12-3.08.236-6.129.236-9.174 0-.716.551-1.297 1.231-1.297s1.231.58 1.231 1.297c0 2.68-.089 5.356-.19 8.012l.74.008c.766.01 1.49.02 2.227-.031.76-.054 1.454-.172 2.084-.401-.043-2.627.068-5.224.25-7.849.05-.714.64-1.251 1.318-1.199z" fill="#000"/></svg>